<svg id="_4" data-name="4" xmlns="http://www.w3.org/2000/svg" viewBox="0 0 612.15 67.38"><defs><style>.cls-1{fill:#fefefe;}</style></defs><polygon class="cls-1" points="426.16 67.38 423.81 67.38 390.7 0.89 405.27 0.89 425.19 43.01 425.35 43.01 445.24 0.89 459.34 0.89 426.16 67.38"/><polygon class="cls-1" points="128.49 0.88 128.49 11.74 96.47 11.74 96.47 28.11 126.39 28.11 126.39 38.57 96.47 38.57 96.47 55.23 131.41 55.23 131.41 66.08 83.79 66.08 83.79 0.88 128.49 0.88"/><polygon class="cls-1" points="285.64 0.88 285.64 11.74 253.62 11.74 253.62 28.58 283.54 28.58 283.54 39.04 253.62 39.04 253.62 55.23 288.56 55.23 288.56 66.08 240.94 66.08 240.94 0.88 285.64 0.88"/><polygon class="cls-1" points="526.03 0.88 526.03 11.74 494.01 11.74 494.01 28.72 523.93 28.72 523.93 39.17 494.01 39.17 494.01 55.23 528.96 55.23 528.96 66.08 481.33 66.08 481.33 0.88 526.03 0.88"/><path class="cls-1" d="M578.64,55.38c14.41,0,20.9-7.25,20.9-21.9s-6.49-21.94-20.9-21.94h-9.46V55.38ZM556.5,66.08V.88h22.14c22.16,0,33.51,13.5,33.51,32.6s-11.35,32.6-33.51,32.6Z"/><path class="cls-1" d="M209.09,7.83l-6,8.32a31.29,31.29,0,0,0-17.79-5.48c-9.47,0-12.28,3.63-12.28,7.06,0,11.65,38,4.88,38,27.93C211,58.24,200.14,67,184.78,67c-10.66,0-19.85-3.29-27.33-11.7l6.83-7.91c6.28,5.89,12.57,8.87,20.7,8.87,9.45,0,14.1-4.54,14.1-9.5,0-14-39-4.55-39-28.36C160.13,7.93,170.6,0,185.49,0,195.08,0,203.92,3.38,209.09,7.83Z"/><path class="cls-1" d="M57.57,65.85l-1.11-9.56a17.35,17.35,0,0,1-3.53.31c-5.32,0-8-1.63-11.19-6.66-1.18-1.87-2.47-4.14-3.57-5.92a10.29,10.29,0,0,0-3.32-3.65c9.35-2.24,15.93-9.1,15.93-19.46,0-11.59-8.31-20-24.19-20H0V66.08H12.67V42.15h5.7a6.24,6.24,0,0,1,6.05,3.27c1.31,2,5.79,9.43,5.79,9.43,5.67,9,11.95,12,20.39,12A24.15,24.15,0,0,0,57.57,65.85ZM26.72,32.25h-14V11.32H26.59c8,0,11.67,3.9,11.67,10,0,7.67-5,10.9-11.54,10.9"/><path class="cls-1" d="M377.29,65.85l-1.11-9.56a17.28,17.28,0,0,1-3.53.31c-5.32,0-8-1.63-11.18-6.66-1.19-1.87-2.48-4.14-3.58-5.92a10.2,10.2,0,0,0-3.32-3.65c9.35-2.24,15.93-9.1,15.93-19.46,0-11.59-8.3-20-24.19-20H319.72V66.08h12.67V42.15h5.7a6.26,6.26,0,0,1,6.06,3.27c1.31,2,5.79,9.43,5.79,9.43,5.66,9,11.94,12,20.38,12A24.15,24.15,0,0,0,377.29,65.85Zm-30.85-33.6H332.39V11.32h13.92c8,0,11.67,3.9,11.67,10,0,7.67-5,10.9-11.54,10.9"/></svg>