<?xml version="1.0" encoding="utf-8"?>
<!-- Generator: Adobe Illustrator 27.4.1, SVG Export Plug-In . SVG Version: 6.00 Build 0)  -->
<svg version="1.1" id="_4" xmlns="http://www.w3.org/2000/svg" xmlns:xlink="http://www.w3.org/1999/xlink" x="0px" y="0px"
	 viewBox="0 0 612.2 166.7" style="enable-background:new 0 0 612.2 166.7;" xml:space="preserve">
<style type="text/css">
	.st0{fill:#FEFEFE;}
	.st1{fill:#FFFFFF;}
</style>
<polygon class="st0" points="426.2,67.4 423.8,67.4 390.7,0.9 405.3,0.9 425.2,43 425.4,43 445.2,0.9 459.3,0.9 "/>
<polygon class="st0" points="128.5,0.9 128.5,11.7 96.5,11.7 96.5,28.1 126.4,28.1 126.4,38.6 96.5,38.6 96.5,55.2 131.4,55.2 
	131.4,66.1 83.8,66.1 83.8,0.9 "/>
<polygon class="st0" points="285.6,0.9 285.6,11.7 253.6,11.7 253.6,28.6 283.5,28.6 283.5,39 253.6,39 253.6,55.2 288.6,55.2 
	288.6,66.1 240.9,66.1 240.9,0.9 "/>
<polygon class="st0" points="526,0.9 526,11.7 494,11.7 494,28.7 523.9,28.7 523.9,39.2 494,39.2 494,55.2 529,55.2 529,66.1 
	481.3,66.1 481.3,0.9 "/>
<path class="st0" d="M578.6,55.4c14.4,0,20.9-7.2,20.9-21.9s-6.5-21.9-20.9-21.9h-9.5v43.8H578.6z M556.5,66.1V0.9h22.1
	c22.2,0,33.5,13.5,33.5,32.6s-11.3,32.6-33.5,32.6H556.5z"/>
<path class="st0" d="M209.1,7.8l-6,8.3c-5.2-3.6-11.4-5.5-17.8-5.5c-9.5,0-12.3,3.6-12.3,7.1c0,11.6,38,4.9,38,27.9
	c0,12.6-10.9,21.3-26.2,21.3c-10.7,0-19.9-3.3-27.3-11.7l6.8-7.9c6.3,5.9,12.6,8.9,20.7,8.9c9.4,0,14.1-4.5,14.1-9.5
	c0-14-39-4.5-39-28.4C160.1,7.9,170.6,0,185.5,0C195.1,0,203.9,3.4,209.1,7.8z"/>
<path class="st0" d="M57.6,65.8l-1.1-9.6c-1.2,0.2-2.3,0.3-3.5,0.3c-5.3,0-8-1.6-11.2-6.7c-1.2-1.9-2.5-4.1-3.6-5.9
	c-0.8-1.5-1.9-2.7-3.3-3.7c9.4-2.2,15.9-9.1,15.9-19.5c0-11.6-8.3-20-24.2-20H0v65.2h12.7V42.2h5.7c2.5-0.2,4.9,1.1,6,3.3
	c1.3,2,5.8,9.4,5.8,9.4c5.7,9,12,12,20.4,12C53,66.9,55.3,66.5,57.6,65.8z M26.7,32.2h-14V11.3h13.9c8,0,11.7,3.9,11.7,10
	C38.3,29,33.3,32.2,26.7,32.2"/>
<path class="st0" d="M377.3,65.8l-1.1-9.6c-1.2,0.2-2.3,0.3-3.5,0.3c-5.3,0-8-1.6-11.2-6.7c-1.2-1.9-2.5-4.1-3.6-5.9
	c-0.8-1.5-1.9-2.7-3.3-3.7c9.4-2.2,15.9-9.1,15.9-19.5c0-11.6-8.3-20-24.2-20h-26.6v65.2h12.7V42.2h5.7c2.5-0.2,4.9,1.1,6.1,3.3
	c1.3,2,5.8,9.4,5.8,9.4c5.7,9,11.9,12,20.4,12C372.7,66.9,375,66.5,377.3,65.8z M346.4,32.2h-14V11.3h13.9c8,0,11.7,3.9,11.7,10
	C358,29,353,32.2,346.4,32.2"/>
<path class="st1" d="M237.4,150.1c-1.2,0.2-2.3,0.3-3.5,0.3c-5.3,0-7.9-1.6-11.1-6.6c-1.2-1.9-2.5-4.1-3.6-5.9c-1.1-1.8-2-3-2.7-4
	c-2.7-3.9-6.8-6.6-11.5-7.3l0,0L236.3,95h-15.8l-26.6,27.7v-17.3l0,0V95h-12.6v64.8h12.6v-23.8h5.7c2.5-0.2,4.9,1,6.1,3.3
	c1.3,2,5.8,9.4,5.8,9.4c5.6,8.9,11.9,11.9,20.3,11.9c2.3,0,4.7-0.3,6.9-1L237.4,150.1z"/>
<path class="st1" d="M327.3,95.8h-22v64.8h22c22,0,33.3-13.4,33.3-32.4C360.6,109.2,349.3,95.8,327.3,95.8z M327.3,150h-9.4v-43.6
	h9.4c14.4,0,20.8,7.2,20.8,21.8C348,142.8,341.6,150,327.3,150z"/>
<path class="st1" d="M428.4,102.6l-5.9,8.3c-5.2-3.6-11.4-5.5-17.7-5.4c-9.4,0-12.2,3.6-12.2,7c0,11.6,37.7,4.8,37.7,27.8
	c0,12.5-10.8,21.3-26.1,21.3c-10.6,0-19.8-3.3-27.2-11.6l6.8-7.9c6.2,5.9,12.5,8.8,20.6,8.8c9.4,0,14-4.6,14-9.4
	c0-13.9-38.7-4.6-38.7-28.2c0-10.4,10.4-18.2,25.2-18.2C414.5,94.8,423.3,98.1,428.4,102.6L428.4,102.6z"/>
<rect x="260.7" y="95.7" class="st1" width="12.5" height="64.8"/>
</svg>
