<svg id="_4" data-name=" 4" xmlns="http://www.w3.org/2000/svg" viewBox="0 0 612.15 67.38"><defs><style>.cls-1{fill:#fff;}</style></defs><path class="cls-1" d="M84.09,13.07v7.11h-21V30.89H82.71v6.85H63.13v10.9H86v7.1H54.84V13.07Zm102.83,0v7.11H166v11h19.57v6.84H166V48.64h22.86v7.1H157.67V13.07Zm157.29,0v7.11H323.27V31.3h19.59v6.83H323.27V48.64h22.87v7.1H315V13.07Zm34.44,35.67c9.44,0,13.68-4.74,13.68-14.33s-4.24-14.35-13.68-14.35h-6.19V48.74Zm-14.48,7V13.07h14.48c14.5,0,21.93,8.84,21.93,21.34s-7.43,21.33-21.93,21.33ZM136.83,17.62l-3.92,5.44a20.47,20.47,0,0,0-11.64-3.57c-6.19,0-8,2.36-8,4.61,0,7.63,24.84,3.2,24.84,18.28,0,8.23-7.11,13.95-17.16,13.95-7,0-13-2.15-17.88-7.66l4.46-5.17c4.11,3.85,8.22,5.8,13.55,5.8,6.18,0,9.22-3,9.22-6.22,0-9.13-25.49-3-25.49-18.55,0-6.84,6.86-12,16.6-12C127.65,12.5,133.44,14.71,136.83,17.62Zm-99.16,38L37,49.33a11.17,11.17,0,0,1-2.31.21c-3.49,0-5.23-1.06-7.32-4.36C26.54,44,25.7,42.47,25,41.3a6.65,6.65,0,0,0-2.17-2.38c6.13-1.47,10.43-6,10.43-12.74,0-7.58-5.43-13.1-15.83-13.1H0V55.74H8.28V40.08H12a4.09,4.09,0,0,1,4,2.14c.86,1.32,3.79,6.17,3.79,6.17,3.71,5.86,7.82,7.83,13.34,7.83A15.86,15.86,0,0,0,37.67,55.59Zm-20.19-22H8.28V19.91H17.4c5.23,0,7.64,2.56,7.64,6.56C25,31.49,21.77,33.6,17.48,33.6Zm229.43,22-.74-6.26a11.17,11.17,0,0,1-2.31.21c-3.49,0-5.23-1.06-7.32-4.36-.78-1.22-1.62-2.71-2.34-3.88A6.74,6.74,0,0,0,232,38.92c6.12-1.47,10.42-6,10.42-12.74,0-7.58-5.43-13.1-15.83-13.1h-17.4V55.74h8.29V40.08h3.73a4.07,4.07,0,0,1,4,2.14c.86,1.32,3.79,6.17,3.79,6.17,3.71,5.86,7.83,7.83,13.33,7.83A16.11,16.11,0,0,0,246.91,55.59Zm-20.21-22h-9.19V19.91h9.11c5.23,0,7.64,2.56,7.64,6.56C234.26,31.49,231,33.6,226.7,33.6ZM485.17,48.85a11.89,11.89,0,0,1-2.31.2c-3.49,0-5.23-1.06-7.32-4.36-.78-1.22-1.62-2.71-2.34-3.88s-1.29-2-1.78-2.62a11.3,11.3,0,0,0-7.58-4.81h0l20.6-20.79h-10.4L456.51,30.82V19.42h0V12.59h-8.3V55.25h8.29V39.59h3.73a4.1,4.1,0,0,1,4,2.14c.85,1.32,3.79,6.18,3.79,6.18,3.7,5.85,7.82,7.82,13.33,7.82a16,16,0,0,0,4.57-.63Zm59.16-.11C553.78,48.74,558,44,558,34.41s-4.23-14.35-13.68-14.35h-6.19V48.74Zm-14.48,7V13.08h14.48c14.5,0,21.93,8.84,21.93,21.33s-7.43,21.33-21.93,21.33Zm81-38.2L607,23a20.47,20.47,0,0,0-11.64-3.58c-6.19,0-8,2.37-8,4.62,0,7.62,24.84,3.19,24.84,18.28,0,8.23-7.11,14-17.16,14-7,0-13-2.16-17.89-7.66l4.47-5.18c4.1,3.86,8.22,5.8,13.55,5.8,6.18,0,9.22-3,9.22-6.21,0-9.13-25.49-3-25.49-18.56,0-6.83,6.86-12,16.6-12C601.72,12.41,607.51,14.63,610.89,17.54ZM508.72,55.66h-8.23V13h8.23Zm-229.84.93h-1.55L255.67,13.08h9.54l13,27.56h.1l13-27.56h9.24Z"/></svg>