<?xml version="1.0" encoding="utf-8"?>
<!-- Generator: Adobe Illustrator 27.4.1, SVG Export Plug-In . SVG Version: 6.00 Build 0)  -->
<svg version="1.1" id="_4" xmlns="http://www.w3.org/2000/svg" xmlns:xlink="http://www.w3.org/1999/xlink" x="0px" y="0px"
	 viewBox="0 0 497.8 163.1" style="enable-background:new 0 0 497.8 163.1;" xml:space="preserve">
<style type="text/css">
	.st0{fill:#FFFFFF;}
</style>
<path class="st0" d="M346.8,56.3h-1.9L318,2.3h11.8L346,36.5h0.1l16.2-34.2h11.5L346.8,56.3z M282.1,27.8h-11.4v-17H282
	c6.5,0,9.5,3.2,9.5,8.1C291.4,25.2,287.4,27.8,282.1,27.8z M307.1,55.1l-0.9-7.8c-0.8,0.2-1.8,0.2-2.9,0.2c-4.3,0-6.5-1.3-9.1-5.4
	c-1-1.5-2-3.4-2.9-4.8c-1-1.6-1.7-2.3-2.7-3c7.6-1.8,12.9-7.4,12.9-15.8c0-9.4-6.7-16.2-19.6-16.2h-21.6v52.9h10.3V35.8h4.6
	c2.6,0,3.8,0.9,4.9,2.7c1.1,1.6,4.7,7.7,4.7,7.7c4.6,7.3,9.7,9.7,16.6,9.7C303.9,55.9,306,55.4,307.1,55.1z M22.5,27.8H11.1v-17
	h11.3c6.5,0,9.5,3.2,9.5,8.1C31.9,25.2,27.8,27.8,22.5,27.8z M47.5,55.1l-0.9-7.8c-0.8,0.2-1.8,0.2-2.9,0.2c-4.3,0-6.5-1.3-9.1-5.4
	c-1-1.5-2-3.4-2.9-4.8c-1-1.6-1.7-2.3-2.7-3C36.7,32.6,42,27,42,18.6c0-9.4-6.7-16.2-19.6-16.2H0.8v52.9h10.3V35.8h4.6
	c2.6,0,3.8,0.9,4.9,2.7c1.1,1.6,4.7,7.7,4.7,7.7c4.6,7.3,9.7,9.7,16.6,9.7C44.3,55.9,46.4,55.4,47.5,55.1z M170.6,8l-4.9,6.8
	c-4.3-2.8-8.9-4.4-14.4-4.4c-7.7,0-10,2.9-10,5.7c0,9.5,30.8,4,30.8,22.7c0,10.2-8.8,17.3-21.3,17.3c-8.7,0-16.1-2.7-22.2-9.5
	l5.5-6.4c5.1,4.8,10.2,7.2,16.8,7.2c7.7,0,11.4-3.7,11.4-7.7c0-11.3-31.6-3.7-31.6-23c0-8.5,8.5-14.9,20.6-14.9
	C159.2,1.6,166.4,4.4,170.6,8z M452.6,55.3V2.3h18c18,0,27.2,11,27.2,26.5c0,15.5-9.2,26.5-27.2,26.5H452.6z M470.6,46.6
	c11.7,0,17-5.9,17-17.8c0-11.9-5.3-17.8-17-17.8h-7.7v35.6H470.6z M427.9,2.3v8.8h-26v13.8h24.3v8.5h-24.3v13h28.4v8.8h-38.7V2.3
	H427.9z M232.7,2.3v8.8h-26v13.7H231v8.5h-24.3v13.1h28.4v8.8h-38.7V2.3H232.7z M156.6,108.2h10.3v52.9h-10.3v-22h-24.3v22H122
	v-52.9h10.3v22.5h24.3V108.2z M316.1,108.2v52.9h-10.3v-32.3L289.2,161h-1.9l-16.6-32.2v32.3h-10.3v-52.9h11.8l16.2,34.2h0.1
	l16.1-34.2H316.1z M214.2,153.3c11.9,0,17.3-6,17.3-18.1c0-12.1-5.4-18.2-17.3-18.2c-11.9,0-17.3,6-17.3,18.2
	C196.9,147.3,202.2,153.3,214.2,153.3z M214.2,108.2c18.3,0,27.7,11.2,27.7,27c0,15.8-9.4,27-27.7,27c-18.3,0-27.7-11.2-27.7-27
	C186.4,119.4,195.8,108.2,214.2,108.2z M373.8,108.2v8.8h-26v13.8h24.3v8.5h-24.3v13h28.4v8.8h-38.7v-52.9H373.8z M105.1,2.3v8.8
	h-26v13.3h24.3v8.5H79.1v13.5h28.4v8.8H68.8V2.3H105.1z"/>
</svg>
