<?xml version="1.0" encoding="utf-8"?>
<!-- Generator: Adobe Illustrator 27.4.1, SVG Export Plug-In . SVG Version: 6.00 Build 0)  -->
<svg version="1.1" id="_4" xmlns="http://www.w3.org/2000/svg" xmlns:xlink="http://www.w3.org/1999/xlink" x="0px" y="0px"
	 viewBox="0 0 1022.3 82.5" style="enable-background:new 0 0 1022.3 82.5;" xml:space="preserve">
<style type="text/css">
	.st0{fill:#FFFFFF;}
</style>
<path class="st0" d="M297.7,7.9v11.3h-33.3v17.5h31.1v10.9h-31.1v16.8h36.3v11.3h-49.5V7.9H297.7z M547.6,7.9v11.3h-33.3v17.6h31.1
	v10.9h-31.1v16.7h36.3v11.3h-49.5V7.9H547.6z M579.3,75.7V7.9h23c23,0,34.8,14,34.8,33.9c0,19.9-11.8,33.9-34.8,33.9H579.3z
	 M602.3,64.6c15,0,21.7-7.5,21.7-22.8c0-15.2-6.7-22.8-21.7-22.8h-9.8v45.6H602.3z M218.2,15.2l-6.2,8.6c-5.5-3.6-11.4-5.7-18.5-5.7
	c-9.8,0-12.8,3.8-12.8,7.3c0,12.1,39.5,5.1,39.5,29c0,13.1-11.3,22.2-27.3,22.2c-11.1,0-20.6-3.4-28.4-12.2l7.1-8.2
	c6.5,6.1,13.1,9.2,21.5,9.2c9.8,0,14.7-4.7,14.7-9.9c0-14.5-40.5-4.7-40.5-29.5c0-10.9,10.9-19.1,26.4-19.1
	C203.6,7,212.8,10.5,218.2,15.2z M28.6,40.5H14V18.8h14.5c8.3,0,12.1,4.1,12.1,10.4C40.6,37.2,35.4,40.5,28.6,40.5z M60.7,75.5
	l-1.1-9.9c-1,0.2-2.3,0.3-3.7,0.3c-5.5,0-8.3-1.7-11.6-6.9c-1.2-1.9-2.6-4.3-3.7-6.2c-1.3-2.1-2.2-3-3.5-3.8
	c9.7-2.3,16.6-9.5,16.6-20.2C53.6,16.7,45,8,28.5,8H0.8v67.8H14V50.8h5.9c3.4,0,4.9,1.2,6.3,3.4c1.4,2.1,6,9.8,6,9.8
	c5.9,9.3,12.4,12.4,21.2,12.4C56.6,76.5,59.2,75.9,60.7,75.5z M360.9,40.5h-14.6V18.8h14.5c8.3,0,12.1,4.1,12.1,10.4
	C372.9,37.2,367.7,40.5,360.9,40.5z M393,75.5l-1.2-9.9c-1,0.2-2.3,0.3-3.7,0.3c-5.5,0-8.3-1.7-11.6-6.9c-1.2-1.9-2.6-4.3-3.7-6.2
	c-1.3-2.1-2.2-3-3.4-3.8c9.7-2.3,16.6-9.5,16.6-20.2c0-12-8.6-20.8-25.1-20.8h-27.6v67.8h13.2V50.8h5.9c3.4,0,4.9,1.2,6.3,3.4
	c1.4,2.1,6,9.8,6,9.8c5.9,9.3,12.4,12.4,21.2,12.4C388.9,76.5,391.5,75.9,393,75.5z M1019.2,7.9v11.3H986v17.7h31.1v10.9H986v16.7
	h36.3v11.3h-49.5V7.9H1019.2z M945.4,7.9v67.8h-13.2V34.3l-21.3,41.2h-2.4l-21.2-41.2v41.3H874V7.9h13.2h2l20.7,43.8h0.2l20.7-43.8
	h1.5H945.4z M741.2,7.9h13.2v67.8h-13.2V47.6h-31.1v28.1h-13.2V7.9h13.2v28.8h31.1V7.9z M443.8,77.1h-2.4L406.9,8h15.1l20.7,43.8
	h0.2L463.6,8h14.7L443.8,77.1z M837,42c-0.1-15.2-7-22.8-22.1-22.8c-15.1,0-22,7.6-22.2,22.8c0.1,15.2,7,22.8,22.2,22.8
	C830,64.8,836.9,57.3,837,42z M850.4,42c0,0.1,0,0.3,0,0.4c0,20.2-12,34.6-35.5,34.6c-23.5,0-35.5-14.3-35.5-34.6c0-0.2,0-0.3,0-0.4
	c0-0.1,0-0.3,0-0.4c0-20.2,12-34.6,35.5-34.6c23.5,0,35.5,14.3,35.5,34.6C850.4,41.7,850.4,41.9,850.4,42z M134.4,7.9v11.3h-33.3v17
	h31.1v10.9h-31.1v17.3h36.3v11.3H87.9V7.9H134.4z"/>
</svg>
